# xmcd CD database file
#
# Track frame offsets:
#	300
#	9211
#	25184
#	55218
#	63634
#	73309
#	87752
#	97346
#	109049
#	118620
#
# Disc length: 1812 seconds
#
# Revision: 1
# Processed by: cddbd v1.5.2PL0 Copyright (c) Steve Scherf et al.
# Submitted via: jetAudio 7
#
DISCID=8707100a
DTITLE=Неизвестный артист - Неизвестный альбом
DYEAR=1900
DGENRE=Неизвестный жанр
TTITLE0=Трек 1
TTITLE1=Трек 2
TTITLE2=Трек 3
TTITLE3=Трек 4
TTITLE4=Трек 5
TTITLE5=Трек 6
TTITLE6=Трек 7
TTITLE7=Трек 8
TTITLE8=Трек 9
TTITLE9=Трек 10
EXTD=
EXTT0=
EXTT1=
EXTT2=
EXTT3=
EXTT4=
EXTT5=
EXTT6=
EXTT7=
EXTT8=
EXTT9=
PLAYORDER=
